<svg xmlns="http://www.w3.org/2000/svg" viewBox="0 0 192 192" width="192" height="192">
  <defs>
    <linearGradient id="bg" x1="0%" y1="0%" x2="100%" y2="100%">
      <stop offset="0%" style="stop-color:#10b981"/>
      <stop offset="100%" style="stop-color:#059669"/>
    </linearGradient>
    <linearGradient id="shine" x1="0%" y1="0%" x2="100%" y2="100%">
      <stop offset="0%" style="stop-color:rgba(255,255,255,0.3)"/>
      <stop offset="50%" style="stop-color:rgba(255,255,255,0)"/>
    </linearGradient>
  </defs>
  <rect width="192" height="192" rx="40" fill="url(#bg)"/>
  <rect width="192" height="192" rx="40" fill="url(#shine)"/>
  <!-- Sparkles/Split icon -->
  <g transform="translate(96,96)" fill="white">
    <!-- Central diamond -->
    <path d="M0,-40 L8,-8 L40,0 L8,8 L0,40 L-8,8 L-40,0 L-8,-8 Z" opacity="0.95"/>
    <!-- Small sparkle top-right -->
    <path d="M32,-32 L35,-24 L42,-22 L35,-20 L32,-12 L29,-20 L22,-22 L29,-24 Z" opacity="0.6" transform="scale(0.7)"/>
    <!-- Small sparkle bottom-left -->
    <path d="M-32,32 L-29,38 L-22,40 L-29,42 L-32,48 L-35,42 L-42,40 L-35,38 Z" opacity="0.5" transform="scale(0.6)"/>
  </g>
</svg>
