<svg xmlns="http://www.w3.org/2000/svg" viewBox="0 0 512 512" width="512" height="512">
  <defs>
    <linearGradient id="bg" x1="0%" y1="0%" x2="100%" y2="100%">
      <stop offset="0%" style="stop-color:#10b981"/>
      <stop offset="100%" style="stop-color:#059669"/>
    </linearGradient>
    <linearGradient id="shine" x1="0%" y1="0%" x2="100%" y2="100%">
      <stop offset="0%" style="stop-color:rgba(255,255,255,0.3)"/>
      <stop offset="50%" style="stop-color:rgba(255,255,255,0)"/>
    </linearGradient>
  </defs>
  <rect width="512" height="512" rx="96" fill="url(#bg)"/>
  <rect width="512" height="512" rx="96" fill="url(#shine)"/>
  <g transform="translate(256,256)" fill="white">
    <path d="M0,-100 L20,-20 L100,0 L20,20 L0,100 L-20,20 L-100,0 L-20,-20 Z" opacity="0.95"/>
    <path d="M70,-70 L76,-52 L94,-46 L76,-40 L70,-22 L64,-40 L46,-46 L64,-52 Z" opacity="0.6"/>
    <path d="M-70,70 L-64,85 L-46,90 L-64,95 L-70,110 L-76,95 L-94,90 L-76,85 Z" opacity="0.5"/>
  </g>
</svg>
